<?xml version="1.0" encoding="UTF-8" standalone="no"?>
<svg
   xmlns:dc="http://purl.org/dc/elements/1.1/"
   xmlns:cc="http://creativecommons.org/ns#"
   xmlns:rdf="http://www.w3.org/1999/02/22-rdf-syntax-ns#"
   xmlns:svg="http://www.w3.org/2000/svg"
   xmlns="http://www.w3.org/2000/svg"
   xmlns:sodipodi="http://sodipodi.sourceforge.net/DTD/sodipodi-0.dtd"
   xmlns:inkscape="http://www.inkscape.org/namespaces/inkscape"
   width="16"
   height="16"
   version="1.1"
   id="svg6"
   sodipodi:docname="org.x.Warpinator-error-symbolic.svg"
   inkscape:version="0.92.5 (2060ec1f9f, 2020-04-08)">
  <metadata
     id="metadata12">
    <rdf:RDF>
      <cc:Work
         rdf:about="">
        <dc:format>image/svg+xml</dc:format>
        <dc:type
           rdf:resource="http://purl.org/dc/dcmitype/StillImage" />
        <dc:title />
      </cc:Work>
    </rdf:RDF>
  </metadata>
  <defs
     id="defs10" />
  <sodipodi:namedview
     pagecolor="#ffffff"
     bordercolor="#666666"
     borderopacity="1"
     objecttolerance="10"
     gridtolerance="10"
     guidetolerance="10"
     inkscape:pageopacity="0"
     inkscape:pageshadow="2"
     inkscape:window-width="1920"
     inkscape:window-height="988"
     id="namedview8"
     showgrid="false"
     inkscape:zoom="59"
     inkscape:cx="4.2275352"
     inkscape:cy="4.3003894"
     inkscape:window-x="0"
     inkscape:window-y="27"
     inkscape:window-maximized="1"
     inkscape:current-layer="svg6" />
  <path
     style="color:#000000;font-style:normal;font-variant:normal;font-weight:normal;font-stretch:normal;font-size:medium;line-height:125%;font-family:Cantarell;-inkscape-font-specification:Cantarell;font-variant-ligatures:normal;font-variant-position:normal;font-variant-caps:normal;font-variant-numeric:normal;font-variant-alternates:normal;font-feature-settings:normal;text-indent:0;text-align:start;text-decoration:none;text-decoration-line:none;text-decoration-style:solid;text-decoration-color:#000000;letter-spacing:0px;word-spacing:0px;text-transform:none;writing-mode:lr-tb;direction:ltr;text-orientation:mixed;dominant-baseline:auto;baseline-shift:baseline;text-anchor:start;white-space:normal;shape-padding:0;clip-rule:nonzero;display:inline;overflow:visible;visibility:visible;opacity:1;isolation:auto;mix-blend-mode:normal;color-interpolation:sRGB;color-interpolation-filters:linearRGB;solid-color:#000000;solid-opacity:1;vector-effect:none;fill:#bebebe;fill-opacity:1;fill-rule:nonzero;stroke:none;stroke-width:1.03421891;stroke-linecap:butt;stroke-linejoin:miter;stroke-miterlimit:4;stroke-dasharray:none;stroke-dashoffset:0;stroke-opacity:1;color-rendering:auto;image-rendering:auto;shape-rendering:auto;text-rendering:auto;enable-background:accumulate"
     d="M 13.970703 0.71289062 C 12.988399 0.71289041 12.181641 1.5216015 12.181641 2.5039062 C 12.181641 2.8339337 12.279075 3.1395582 12.4375 3.40625 L 12.632812 3.1367188 L 13.841797 4.0136719 L 13.662109 4.2636719 C 13.763247 4.2816948 13.864717 4.2949219 13.970703 4.2949219 C 14.953008 4.2949219 15.761719 3.4862104 15.761719 2.5039062 C 15.761719 1.5216019 14.953008 0.71289127 13.970703 0.71289062 z M 13.662109 4.2636719 C 13.140805 4.1707748 12.699739 3.8477028 12.4375 3.40625 L 12.322266 3.5644531 L 10.417969 6.1953125 C 10.881103 6.4083291 11.27844 6.7417159 11.5625 7.1601562 L 13.662109 4.2636719 z M 11.5625 7.1601562 L 11.384766 7.40625 L 10.175781 6.5292969 L 10.417969 6.1953125 C 10.06841 6.0345345 9.6832098 5.9414063 9.2753906 5.9414062 C 7.8349905 5.9414062 6.6543358 7.0653209 6.5351562 8.4765625 L 6.6015625 8.46875 L 7.1132812 8.4082031 L 7.2734375 9.7519531 L 6.75 9.8144531 C 7.031998 10.450312 7.5453434 10.962779 8.1835938 11.240234 A 4.5 4.5 0 0 1 8.7246094 10.056641 C 8.1895796 9.8414313 7.8164063 9.3227051 7.8164062 8.7050781 C 7.8164052 7.8912436 8.4615561 7.2441406 9.2753906 7.2441406 C 9.9781084 7.2441415 10.552712 7.7273862 10.697266 8.3828125 A 4.5 4.5 0 0 1 11.947266 8.0410156 C 11.867931 7.7250732 11.740697 7.4232145 11.5625 7.1601562 z M 6.75 9.8144531 C 6.5989577 9.4738779 6.5117189 9.0996341 6.5117188 8.7050781 C 6.5117187 8.6268717 6.5286854 8.5531858 6.5351562 8.4765625 L 2.0253906 9.0136719 C 2.2229756 9.2241632 2.3496093 9.5037742 2.3496094 9.8125 C 2.3496093 10.011824 2.2844247 10.190322 2.1953125 10.355469 L 6.75 9.8144531 z M 2.1953125 10.355469 L 2.1542969 10.361328 L 1.9960938 9.0175781 L 2.0253906 9.0136719 C 1.8104946 8.7847388 1.509602 8.6386719 1.1738281 8.6386719 C 0.52932891 8.6386719 1.0756726e-07 9.168 0 9.8125 C 1.0756726e-07 10.456999 0.5293289 10.986328 1.1738281 10.986328 C 1.6190036 10.986328 1.9962867 10.724312 2.1953125 10.355469 z M 13.970703 1.8242188 C 14.353141 1.824219 14.652344 2.121468 14.652344 2.5039062 C 14.652344 2.8863445 14.353141 3.1835937 13.970703 3.1835938 C 13.588265 3.1835938 13.291016 2.8863445 13.291016 2.5039062 C 13.291016 2.121468 13.588265 1.8242186 13.970703 1.8242188 z M 4.9160156 1.9804688 C 4.2770941 1.9804688 3.7500001 2.5056098 3.75 3.1445312 C 3.7499997 3.783454 4.2770938 4.3085938 4.9160156 4.3085938 C 5.5549374 4.3085938 6.0800784 3.783454 6.0800781 3.1445312 C 6.0800781 2.5056098 5.5549372 1.9804687 4.9160156 1.9804688 z M 6.0332031 3.953125 L 5.4941406 4.3886719 L 6.2363281 5.3046875 L 6.8046875 4.8261719 L 6.0332031 3.953125 z M 6.953125 5 L 6.3632812 5.4667969 L 7.1757812 6.5644531 L 7.8164062 6.0566406 L 6.953125 5 z M 1.1738281 9.3417969 C 1.4379813 9.3417969 1.6445313 9.548346 1.6445312 9.8125 C 1.6445312 10.076653 1.4379813 10.283203 1.1738281 10.283203 C 0.909675 10.283203 0.703125 10.076653 0.703125 9.8125 C 0.703125 9.548346 0.909675 9.3417969 1.1738281 9.3417969 z M 7.6992188 11.337891 L 7.0097656 12.617188 L 7.7617188 12.943359 L 8 12.521484 A 4.5 4.5 0 0 1 8 12.5 A 4.5 4.5 0 0 1 8.1054688 11.544922 L 7.6992188 11.337891 z M 6.8261719 12.9375 C 6.2653372 12.9375 5.8046882 13.398149 5.8046875 13.958984 C 5.8046873 14.519819 6.2653366 14.980469 6.8261719 14.980469 C 7.3870073 14.980469 7.8476562 14.519819 7.8476562 13.958984 C 7.8476562 13.39815 7.3870063 12.9375 6.8261719 12.9375 z "
     id="rect2439-3-5" />
  <path
     style="color:#bebebe;overflow:visible;fill:#ef2929;marker:none;enable-background:new"
     d="m 12.5,9 a 3.5,3.5 0 1 0 0,7 3.5,3.5 0 0 0 0,-7 z"
     id="path820"
     class="error"
     inkscape:connector-curvature="0" />
</svg>
